<svg width="124" height="23" viewBox="0 0 124 23" fill="none" xmlns="http://www.w3.org/2000/svg">
<path d="M7.0344 21.3444C15.4753 21.3444 20.0913 14.3513 20.0913 8.28746C20.0913 8.08876 20.0873 7.89092 20.0781 7.6942C20.9741 7.04652 21.753 6.23824 22.3675 5.31813C21.5452 5.68334 20.6603 5.92957 19.7321 6.04051C20.6795 5.47256 21.407 4.57356 21.75 3.50207C20.8632 4.02772 19.8814 4.41001 18.8361 4.61589C17.9987 3.72395 16.8061 3.16602 15.4865 3.16602C12.9519 3.16602 10.8967 5.22123 10.8967 7.75475C10.8967 8.11496 10.9371 8.46507 11.0157 8.8011C7.20189 8.60938 3.81993 6.7832 1.55679 4.0065C1.16231 4.68451 0.935326 5.47256 0.935326 6.31296C0.935326 7.90515 1.74547 9.31055 2.97739 10.1329C2.22477 10.1097 1.51751 9.90285 0.898994 9.55874C0.89801 9.57789 0.89801 9.59713 0.89801 9.61726C0.89801 11.84 2.48002 13.6955 4.57961 14.1162C4.19418 14.2211 3.7886 14.2777 3.36989 14.2777C3.07428 14.2777 2.78673 14.2484 2.50722 14.1949C3.09145 16.0181 4.78548 17.3449 6.79427 17.3823C5.22335 18.6131 3.24481 19.3467 1.09467 19.3467C0.724442 19.3467 0.359222 19.3255 0 19.2831C2.03098 20.5846 4.44246 21.3444 7.0344 21.3444Z" fill="white"/>
<path d="M43.8725 22.3276C41.2576 21.9165 38.8591 20.5804 37.1205 18.5657C35.3635 16.5296 34.3958 13.925 34.3958 11.2318C34.3958 8.23178 35.5642 5.41126 37.6856 3.28979C39.8071 1.16834 42.6276 0 45.6276 0C48.6276 0 51.4481 1.16834 53.5696 3.28979C55.6911 5.41126 56.8594 8.23178 56.8594 11.2318C56.8594 13.925 55.8917 16.5296 54.1347 18.5657C52.396 20.5806 49.9985 21.9162 47.3837 22.3265L47.3828 14.4787H49.9995L50.4972 11.2318H47.3828V9.12471L47.3828 9.1039C47.3878 8.45673 47.6322 7.37105 49.2131 7.37105H50.6289V4.607C50.6197 4.6056 49.3325 4.38751 48.1149 4.38751C45.4584 4.38751 43.8725 6.02102 43.8725 8.75716V11.2318H41.0206V14.4787H43.8725V22.3276Z" fill="white"/>
<path d="M82.2424 20.0309C82.1726 20.0309 75.2368 20.0256 73.515 19.5644C72.5534 19.3077 71.7965 18.551 71.5396 17.5898C71.0785 15.8672 71.0731 12.2491 71.0731 12.2127C71.0731 12.1764 71.0785 8.55826 71.5396 6.83642C71.7962 5.87555 72.5531 5.11863 73.515 4.86103C75.2368 4.39986 82.1726 4.39453 82.2424 4.39453C82.3123 4.39453 89.2472 4.39986 90.9691 4.86103C91.931 5.11863 92.6879 5.87555 92.9445 6.83642C93.4056 8.55826 93.411 12.1764 93.411 12.2127C93.411 12.2491 93.4056 15.8672 92.9445 17.5898C92.6876 18.551 91.9307 19.3077 90.9691 19.5644C89.2472 20.0256 82.3123 20.0309 82.2424 20.0309ZM80.0081 8.8624V15.5638L85.8115 12.2127L80.0081 8.8624Z" fill="white"/>
<path d="M109.784 21.1346C106.591 21.1346 103.994 18.5376 103.994 15.3447V7.12194C103.994 3.92959 106.591 1.33203 109.784 1.33203H118.007C121.2 1.33203 123.797 3.92959 123.797 7.12194V15.3447C123.797 18.5376 121.2 21.1346 118.007 21.1346H109.784ZM105.84 7.12194V15.3447C105.84 17.5194 107.61 19.2888 109.784 19.2888H118.007C120.182 19.2888 121.951 17.5194 121.951 15.3447V7.12194C121.951 4.94727 120.182 3.17779 118.007 3.17779H109.784C107.61 3.17779 105.84 4.94727 105.84 7.12194ZM108.777 11.2336C108.777 8.41105 111.073 6.11476 113.895 6.11476C116.718 6.11476 119.014 8.41105 119.014 11.2336C119.014 14.0556 116.718 16.3519 113.895 16.3519C111.073 16.3519 108.777 14.0556 108.777 11.2336ZM110.623 11.2336C110.623 13.0379 112.091 14.5055 113.895 14.5055C115.7 14.5055 117.168 13.0379 117.168 11.2336C117.168 9.42873 115.7 7.96052 113.895 7.96052C112.091 7.96052 110.623 9.42873 110.623 11.2336ZM117.953 5.95224C117.953 5.27065 118.505 4.71842 119.187 4.71842C119.868 4.71842 120.42 5.27065 120.42 5.95224C120.42 6.63383 119.868 7.18607 119.187 7.18607C118.505 7.18607 117.953 6.63383 117.953 5.95224Z" fill="white"/>
</svg>
