<svg width="33" height="51" viewBox="0 0 33 51" fill="none" xmlns="http://www.w3.org/2000/svg">
<path d="M31.7517 35.8953C31.1713 34.5936 29.6695 33.892 27.8837 34.0871C26.1812 34.2732 24.7224 34.9944 23.4924 36.1619C21.9573 37.6193 21.7295 38.9027 22.6093 40.7992C21.1655 41.426 19.9662 40.9714 19.0041 39.514C18.1202 38.1758 17.2923 36.7755 16.2386 35.5795C15.6511 34.9126 15.0286 34.3261 12.5567 33.0862C12.4314 32.8897 12.3004 32.6942 12.1582 32.5015C11.6012 31.7448 11.0212 30.9861 10.5988 30.1541C9.67229 28.3281 10.1966 26.7229 12.0679 25.9348C13.1339 25.4863 14.3448 25.3923 15.4673 25.0606C15.9818 24.9086 16.6749 24.6916 16.8835 24.2931C17.6861 22.7609 18.3255 21.1426 19.1407 19.2956C13.9566 19.181 10.5156 21.1473 8.89168 26.0821C7.74672 22.8596 8.54607 19.8718 11.0137 17.7325C13.6175 15.4748 16.7965 14.6802 20.0981 14.1741C20.6785 14.0848 21.534 13.8762 21.7272 13.4693C23.6626 9.39221 25.4853 5.26228 27.3809 1.05706C26.959 0.927039 26.7467 0.813384 26.5288 0.800757C20.8535 0.476161 15.4893 1.52103 10.6508 4.61637C2.09719 10.0882 0.300249 19.2226 6.2173 27.4722C7.54515 29.3229 9.2303 30.9253 10.8107 32.5848C12.5324 34.3925 12.7812 36.2082 11.4454 38.0187C9.0858 36.1852 7.22524 36.0912 4.70333 37.7624C2.68233 39.1014 1.21089 40.9017 0.405962 43.2136C-0.438765 45.6382 0.0570239 47.9553 1.68422 49.1802C3.42085 50.4884 5.59148 50.4024 7.75096 48.8472C10.9085 46.5727 12.7185 43.396 13.6521 39.6866C13.8401 38.9396 13.9262 38.2114 13.9206 37.5009L13.9444 37.5673C14.7583 37.3475 15.5875 36.985 17.3798 38.9878C17.8152 39.4747 18.3073 39.9209 18.7357 40.4195C19.9653 41.8511 21.5106 42.6041 23.4002 42.5653C26.076 42.5111 28.5259 41.7754 30.5722 39.9793C31.9715 38.7511 32.3705 37.2844 31.7517 35.8953Z" fill="white"/>
</svg>
